<?xml version="1.0" encoding="UTF-8"?>
<svg xmlns="http://www.w3.org/2000/svg" version="1.1" xmlns:xlink="http://www.w3.org/1999/xlink" viewBox="0 0 595.28 841.89">
  <!-- Generator: Adobe Illustrator 30.3.0, SVG Export Plug-In . SVG Version: 2.1.3 Build 182)  -->
  <defs>
    <style>
      .st0 {
        clip-path: url(#clippath-51);
      }

      .st1 {
        clip-path: url(#clippath-34);
      }

      .st2 {
        clip-path: url(#clippath-38);
      }

      .st3 {
        clip-path: url(#clippath-31);
      }

      .st4 {
        clip-path: url(#clippath-33);
      }

      .st5 {
        clip-path: url(#clippath-47);
      }

      .st6 {
        fill: #c64693;
      }

      .st7 {
        clip-path: url(#clippath-54);
      }

      .st8 {
        fill: #d2d700;
      }

      .st9 {
        clip-path: url(#clippath-42);
      }

      .st10, .st11 {
        fill: #fff;
      }

      .st12 {
        fill: #0e0914;
      }

      .st13 {
        clip-path: url(#clippath-43);
      }

      .st14 {
        clip-path: url(#clippath-57);
      }

      .st15, .st16 {
        fill: none;
      }

      .st17 {
        clip-path: url(#clippath-36);
      }

      .st18 {
        clip-path: url(#clippath-35);
      }

      .st19 {
        clip-path: url(#clippath-48);
      }

      .st20 {
        clip-path: url(#clippath-56);
      }

      .st21 {
        fill: #e72585;
      }

      .st22 {
        fill: #8f8f8f;
      }

      .st23 {
        clip-path: url(#clippath-45);
      }

      .st24 {
        isolation: isolate;
      }

      .st25 {
        clip-path: url(#clippath-46);
      }

      .st26 {
        clip-path: url(#clippath-40);
      }

      .st11, .st27, .st16 {
        stroke: #c1e5f6;
        stroke-miterlimit: 10;
      }

      .st28 {
        clip-path: url(#clippath-52);
      }

      .st29 {
        clip-path: url(#clippath-41);
      }

      .st30 {
        fill: #8a8a8a;
      }

      .st31 {
        clip-path: url(#clippath-50);
      }

      .st32 {
        fill: #3cbff0;
      }

      .st33 {
        fill: #858585;
      }

      .st34 {
        clip-path: url(#clippath-30);
      }

      .st35 {
        fill: #8e8e8e;
      }

      .st36 {
        clip-path: url(#clippath-32);
      }

      .st37 {
        display: none;
      }

      .st38 {
        fill: #e3e3e3;
      }

      .st39 {
        clip-path: url(#clippath-55);
      }

      .st27 {
        fill: #f6fbfe;
        stroke-width: .25px;
      }

      .st40 {
        clip-path: url(#clippath-53);
      }

      .st41 {
        clip-path: url(#clippath-39);
      }

      .st42 {
        clip-path: url(#clippath-29);
      }

      .st43 {
        fill: #012b38;
      }

      .st44 {
        clip-path: url(#clippath-49);
      }

      .st45 {
        clip-path: url(#clippath-37);
      }

      .st46 {
        clip-path: url(#clippath-87);
      }

      .st47 {
        clip-path: url(#clippath-44);
      }
    </style>
    <clipPath id="clippath-29">
      <path class="st6" d="M100.72,305.92c-1.78.14-3.55.28-5.33.43,1.72-.14,3.3-.52,4.73-1.15,1.42-.62,2.57-1.24,3.44-1.88,1.78-.13,3.56-.26,5.35-.38-.88.63-2.03,1.25-3.46,1.86-1.43.62-3.01.99-4.74,1.12Z"/>
    </clipPath>
    <clipPath id="clippath-30">
      <path class="st6" d="M103.96,292.34c-1.81.13-3.61.27-5.41.41-.29-1.48-.99-2.75-2.13-3.77-1.14-1.04-2.75-1.46-4.82-1.29,1.82-.16,3.63-.31,5.45-.45,2.07-.17,3.67.27,4.81,1.32,1.14,1.03,1.84,2.3,2.11,3.79Z"/>
    </clipPath>
    <clipPath id="clippath-31">
      <path class="st6" d="M100.69,311.91c-1.76.14-3.53.28-5.29.43-2.41.2-4.64.08-6.68-.38-2.05-.46-3.85-1.28-5.39-2.46-1.55-1.17-2.82-2.68-3.83-4.55-1-1.86-1.64-4.08-1.91-6.67-.26-2.52-.09-4.74.52-6.68.61-1.94,1.53-3.61,2.78-5,1.25-1.39,2.75-2.48,4.52-3.25,1.76-.78,3.66-1.26,5.7-1.43,1.83-.16,3.66-.31,5.48-.46-2.04.16-3.94.63-5.7,1.4-1.78.77-3.28,1.84-4.54,3.23-1.26,1.38-2.19,3.04-2.81,4.98-.62,1.93-.8,4.16-.56,6.67.25,2.59.88,4.82,1.87,6.68.99,1.87,2.26,3.39,3.8,4.57,1.54,1.19,3.34,2.02,5.38,2.49,2.04.47,4.27.62,6.68.43Z"/>
    </clipPath>
    <clipPath id="clippath-32">
      <path class="st6" d="M68.25,293.78c-1.8.21-3.61.42-5.41.63,1.32-1.23,1.84-2.93,1.59-5.11-.25-2.1-1.11-3.59-2.62-4.47-1.5-.89-3.57-1.17-6.19-.84,1.82-.23,3.65-.46,5.48-.68,2.63-.32,4.69-.02,6.19.88,1.5.89,2.35,2.39,2.59,4.49.24,2.18-.29,3.88-1.62,5.1Z"/>
    </clipPath>
    <clipPath id="clippath-33">
      <path class="st6" d="M62.51,296.05c-1.8.22-3.6.44-5.4.67,2.5-.32,4.42-1.09,5.73-2.31,1.8-.22,3.61-.43,5.41-.63-1.33,1.21-3.24,1.97-5.75,2.27Z"/>
    </clipPath>
    <clipPath id="clippath-34">
      <path class="st6" d="M49.99,279.5c-1.83.24-3.67.49-5.5.75.65-.29,1.39-.58,2.2-.86.81-.27,1.65-.52,2.53-.74.88-.22,1.77-.41,2.66-.56.89-.16,1.74-.29,2.55-.39,1.84-.23,3.68-.46,5.52-.69-.81.1-1.66.22-2.55.38-.89.15-1.78.33-2.67.54-.88.22-1.73.46-2.54.73-.81.27-1.55.56-2.2.84Z"/>
    </clipPath>
    <clipPath id="clippath-35">
      <path class="st6" d="M56.78,316.01c-1.76.23-3.52.47-5.27.71-1.55.21-2.67.09-3.39-.39-.71-.47-1.16-1.37-1.35-2.7,1.76-.25,3.53-.5,5.29-.74.18,1.33.63,2.23,1.33,2.71.71.49,1.83.62,3.38.41Z"/>
    </clipPath>
    <clipPath id="clippath-36">
      <path class="st6" d="M47.93,282.54c-1.83.25-3.66.5-5.48.76-.11-.76.02-1.37.38-1.84.37-.46.92-.88,1.65-1.22,1.83-.26,3.67-.51,5.5-.75-.73.34-1.29.75-1.66,1.21-.37.46-.5,1.08-.39,1.83Z"/>
    </clipPath>
    <clipPath id="clippath-37">
      <path class="st15" d="M130.81,303.87c-1.78.08-3.56.16-5.34.24.69-.03,1.4-.15,2.12-.34.72-.19,1.36-.43,1.93-.7,1.78-.08,3.56-.15,5.35-.22-.57.26-1.22.5-1.94.69-.72.19-1.43.3-2.12.33Z"/>
    </clipPath>
    <clipPath id="clippath-38">
      <path class="st6" d="M129.28,310.11c-1.77.08-3.53.16-5.3.25-3.24.16-5.83-.42-7.79-1.74-1.96-1.33-3.04-3.65-3.25-6.98,1.79-.11,3.57-.22,5.36-.32.19,3.32,1.26,5.66,3.21,7,1.95,1.34,4.54,1.94,7.78,1.79Z"/>
    </clipPath>
    <clipPath id="clippath-39">
      <path class="st6" d="M116.71,273.36c-1.84.1-3.69.21-5.53.33.34-.1.83-.24,1.49-.4.66-.17,1.37-.27,2.14-.32,1.85-.11,3.69-.21,5.54-.31-.77.04-1.49.14-2.14.3-.66.15-1.15.29-1.49.39Z"/>
    </clipPath>
    <clipPath id="clippath-40">
      <path class="st8" d="M178.19,279.58c-1.83-.02-3.66-.04-5.49-.05-1.02-.7-2.36-1.3-4.05-1.82-1.68-.51-3.53-.77-5.53-.76,1.84,0,3.67,0,5.51,0,2,0,3.85.28,5.52.79,1.68.53,3.02,1.14,4.04,1.84Z"/>
    </clipPath>
    <clipPath id="clippath-41">
      <path class="st8" d="M166.47,302.87c-1.78,0-3.56,0-5.35.02,2.4-.02,4.15-.48,5.27-1.39,1.12-.92,1.68-2.07,1.68-3.45,0-1.26-.44-2.27-1.32-3.03-.87-.76-2.21-1.39-4.01-1.91,1.8,0,3.6-.01,5.41,0,1.8.53,3.13,1.17,4,1.93.87.76,1.31,1.77,1.3,3.03-.01,1.38-.58,2.52-1.7,3.44-1.12.9-2.88,1.35-5.28,1.35Z"/>
    </clipPath>
    <clipPath id="clippath-42">
      <path class="st8" d="M164.14,291.9c-1.8,0-3.61.02-5.41.03-1.6-.47-3.05-1-4.36-1.6-1.31-.59-2.44-1.29-3.37-2.11-.94-.81-1.67-1.78-2.2-2.88-.54-1.11-.82-2.43-.85-3.98-.07-3.29,1.17-5.93,3.75-7.91,2.57-1.97,6.15-2.99,10.71-3.02,1.85,0,3.7-.01,5.55,0-4.55,0-8.14,1-10.73,2.95-2.59,1.96-3.85,4.6-3.8,7.89.02,1.55.3,2.88.83,3.98.52,1.11,1.25,2.08,2.18,2.9.93.83,2.06,1.53,3.36,2.14,1.31.6,2.76,1.14,4.35,1.62Z"/>
    </clipPath>
    <clipPath id="clippath-43">
      <path class="st8" d="M166.65,309.4c-1.77,0-3.54,0-5.3.02-1.89.01-3.63-.13-5.21-.44-1.59-.3-2.96-.72-4.11-1.25-1.17-.53-2.07-1.16-2.73-1.9-.65-.73-.99-1.55-1.01-2.45-.02-.94.24-1.74.78-2.43.55-.68,1.19-1.19,1.94-1.53,1.79-.03,3.58-.06,5.37-.08-.75.33-1.4.85-1.95,1.52-.55.68-.81,1.49-.8,2.42.01.89.35,1.71,1,2.45.65.75,1.55,1.38,2.71,1.92,1.15.54,2.52.96,4.11,1.28,1.58.31,3.32.47,5.21.47Z"/>
    </clipPath>
    <clipPath id="clippath-44">
      <path class="st8" d="M211.49,310.03c-1.77-.09-3.54-.18-5.3-.26-1.48-.07-2.55-.38-3.23-.94-.68-.56-.98-1.51-.93-2.85,1.78.07,3.55.15,5.33.24-.06,1.34.24,2.29.91,2.86.67.56,1.74.88,3.22.96Z"/>
    </clipPath>
    <clipPath id="clippath-45">
      <path class="st8" d="M208.06,291.54c-1.81-.09-3.61-.17-5.42-.24.08-2.03-.4-3.53-1.46-4.48-1.06-.96-2.49-1.47-4.25-1.54,1.82.06,3.64.13,5.46.21,1.77.07,3.19.6,4.24,1.56,1.05.96,1.53,2.46,1.43,4.49Z"/>
    </clipPath>
    <clipPath id="clippath-46">
      <path class="st8" d="M196.71,280.81c-1.83-.06-3.66-.12-5.49-.17.94-.41,2.03-.77,3.25-1.06,1.22-.29,2.58-.4,4.07-.35,1.83.07,3.66.14,5.49.22-1.49-.06-2.85.04-4.07.32-1.22.29-2.31.64-3.26,1.04Z"/>
    </clipPath>
    <clipPath id="clippath-47">
      <path class="st8" d="M192.16,309.23c-1.77-.05-3.54-.1-5.31-.14-1.44-.03-2.5-.32-3.19-.86-.68-.54-1.02-1.49-.99-2.83,1.78.03,3.55.07,5.33.12-.03,1.34.3,2.28.98,2.83.69.55,1.75.84,3.19.88Z"/>
    </clipPath>
    <clipPath id="clippath-48">
      <path class="st8" d="M188.9,269.05c-1.85-.05-3.71-.09-5.56-.12.34-.11.85-.22,1.53-.3.67-.09,1.4-.12,2.22-.1,1.85.04,3.71.09,5.56.14-.82-.02-1.55,0-2.22.09-.68.08-1.19.19-1.53.29Z"/>
    </clipPath>
    <clipPath id="clippath-49">
      <path class="st8" d="M236.93,306.07c-1.78-.15-3.55-.29-5.33-.42,2.26.17,4.09-.48,5.48-1.98,1.78.15,3.56.3,5.34.46-1.41,1.49-3.23,2.14-5.5,1.95Z"/>
    </clipPath>
    <clipPath id="clippath-50">
      <path class="st8" d="M242.43,304.12c-1.78-.16-3.56-.31-5.34-.46,1.39-1.49,2.22-3.7,2.47-6.62.25-2.91-.21-5.23-1.38-6.93-1.17-1.71-2.9-2.66-5.17-2.83,1.82.14,3.63.28,5.45.43,2.28.19,4,1.14,5.16,2.86,1.16,1.71,1.6,4.03,1.34,6.94-.27,2.92-1.11,5.12-2.51,6.61Z"/>
    </clipPath>
    <clipPath id="clippath-51">
      <path class="st8" d="M236.42,312.2c-1.76-.15-3.53-.29-5.29-.42-2.29-.17-4.33-.67-6.14-1.51-1.79-.84-3.31-1.95-4.55-3.36-1.23-1.4-2.16-3.06-2.77-4.99-.61-1.94-.86-4.1-.72-6.5.14-2.35.63-4.45,1.48-6.3.85-1.84,2-3.38,3.46-4.61,1.46-1.23,3.17-2.14,5.12-2.72,1.95-.58,4.11-.78,6.44-.61,1.83.14,3.66.28,5.48.44-2.34-.19-4.49,0-6.45.57-1.96.57-3.67,1.46-5.14,2.69-1.47,1.22-2.63,2.75-3.49,4.59-.86,1.84-1.37,3.93-1.52,6.29-.15,2.4.08,4.56.68,6.5.6,1.93,1.52,3.6,2.74,5.01,1.23,1.41,2.74,2.54,4.53,3.39,1.8.85,3.84,1.36,6.13,1.55Z"/>
    </clipPath>
    <clipPath id="clippath-52">
      <path class="st8" d="M277.25,308.02c-1.77-.23-3.55-.46-5.33-.68,1.58-1.32,2.58-3.55,2.98-6.69.41-3.27-.02-5.68-1.32-7.24-1.3-1.55-3.11-2.47-5.42-2.74,1.81.21,3.62.43,5.43.65,2.31.28,4.12,1.22,5.4,2.77,1.29,1.57,1.71,3.98,1.27,7.25-.42,3.14-1.43,5.37-3.02,6.67Z"/>
    </clipPath>
    <clipPath id="clippath-53">
      <path class="st8" d="M271.17,309.53c-1.77-.22-3.54-.43-5.32-.64,2.47.29,4.48-.22,6.08-1.54,1.78.22,3.55.45,5.33.68-1.6,1.32-3.62,1.81-6.09,1.51Z"/>
    </clipPath>
    <clipPath id="clippath-54">
      <path class="st8" d="M271.57,315.79c-1.76-.22-3.52-.43-5.28-.64-1.18-.14-2.26-.38-3.23-.72-.98-.34-1.85-.71-2.64-1.12,1.76.2,3.53.4,5.29.6.79.42,1.66.79,2.64,1.14.97.34,2.05.59,3.23.74Z"/>
    </clipPath>
    <clipPath id="clippath-55">
      <path class="st8" d="M263.34,286.56c-1.82-.2-3.64-.4-5.46-.59,1.3-.56,2.88-1,4.76-1.3,1.87-.31,3.95-.33,6.24-.06,1.82.21,3.65.43,5.47.66-2.28-.28-4.37-.28-6.24.02-1.88.29-3.47.72-4.77,1.27Z"/>
    </clipPath>
    <clipPath id="clippath-56">
      <path class="st8" d="M260.83,325.13c-1.74-.2-3.48-.39-5.22-.57-1.41-.15-2.44-.52-3.06-1.12-.63-.6-.89-1.57-.75-2.9,1.75.18,3.49.36,5.24.55-.14,1.33.11,2.3.74,2.9.62.6,1.65.98,3.06,1.14Z"/>
    </clipPath>
    <clipPath id="clippath-57">
      <path class="st8" d="M260.36,290.35c-1.81-.2-3.62-.39-5.43-.57.1-.97.38-1.74.85-2.3.46-.57,1.17-1.07,2.11-1.5,1.82.19,3.64.39,5.46.59-.95.43-1.65.92-2.12,1.49-.47.56-.76,1.33-.86,2.3Z"/>
    </clipPath>
    <clipPath id="clippath-87">
      <circle class="st11" cx="279.25" cy="476.74" r="269.79"/>
    </clipPath>
  </defs>
  <g id="Camada_1" class="st37">
    <rect class="st12" x="-3.32" width="598.59" height="841.89"/>
  </g>
  <g id="Camada_9" class="st37">
    <g>
      <g class="st24">
        <g class="st24">
          <path class="st6" d="M100.72,305.92c-1.78.14-3.55.28-5.33.43,1.72-.14,3.3-.52,4.73-1.15,1.42-.62,2.57-1.24,3.44-1.88,1.78-.13,3.56-.26,5.35-.38-.88.63-2.03,1.25-3.46,1.86-1.43.62-3.01.99-4.74,1.12Z"/>
          <g class="st42">
            <g class="st24">
              <path class="st6" d="M100.72,305.92c-1.78.14-3.55.28-5.33.43.83-.07,1.62-.19,2.38-.37,1.78-.14,3.55-.28,5.33-.42-.76.17-1.56.29-2.38.36"/>
              <path class="st6" d="M103.11,305.56c-1.78.13-3.55.27-5.33.42.82-.19,1.61-.45,2.35-.78.3-.13.59-.26.87-.39,1.78-.14,3.56-.27,5.34-.4-.28.13-.57.26-.87.39-.75.32-1.53.58-2.36.76"/>
              <path class="st6" d="M106.33,304.41c-1.78.13-3.56.26-5.34.4,1.03-.49,1.89-.99,2.58-1.49,1.78-.13,3.56-.26,5.35-.38-.69.5-1.56.99-2.59,1.47"/>
            </g>
          </g>
        </g>
        <g class="st24">
          <path class="st6" d="M103.96,292.34c-1.81.13-3.61.27-5.41.41-.29-1.48-.99-2.75-2.13-3.77-1.14-1.04-2.75-1.46-4.82-1.29,1.82-.16,3.63-.31,5.45-.45,2.07-.17,3.67.27,4.81,1.32,1.14,1.03,1.84,2.3,2.11,3.79Z"/>
          <g class="st34">
            <g class="st24">
              <path class="st6" d="M103.96,292.34c-1.81.13-3.61.27-5.41.41-.29-1.48-.99-2.75-2.13-3.77-1.14-1.04-2.75-1.46-4.82-1.29,1.82-.16,3.63-.31,5.45-.45,2.07-.17,3.67.27,4.81,1.32,1.14,1.03,1.84,2.3,2.11,3.79"/>
            </g>
          </g>
        </g>
        <path class="st6" d="M90.2,295.47c-1.8.16-3.6.33-5.4.5,4.57-1.11,9.15-2.18,13.75-3.21,1.8-.14,3.61-.28,5.41-.41-4.6,1-9.19,2.05-13.76,3.13Z"/>
        <g class="st24">
          <path class="st6" d="M100.69,311.91c-1.76.14-3.53.28-5.29.43-2.41.2-4.64.08-6.68-.38-2.05-.46-3.85-1.28-5.39-2.46-1.55-1.17-2.82-2.68-3.83-4.55-1-1.86-1.64-4.08-1.91-6.67-.26-2.52-.09-4.74.52-6.68.61-1.94,1.53-3.61,2.78-5,1.25-1.39,2.75-2.48,4.52-3.25,1.76-.78,3.66-1.26,5.7-1.43,1.83-.16,3.66-.31,5.48-.46-2.04.16-3.94.63-5.7,1.4-1.78.77-3.28,1.84-4.54,3.23-1.26,1.38-2.19,3.04-2.81,4.98-.62,1.93-.8,4.16-.56,6.67.25,2.59.88,4.82,1.87,6.68.99,1.87,2.26,3.39,3.8,4.57,1.54,1.19,3.34,2.02,5.38,2.49,2.04.47,4.27.62,6.68.43Z"/>
          <g class="st3">
            <g class="st24">
              <path class="st6" d="M100.69,311.91c-1.76.14-3.53.28-5.29.43-2.41.2-4.64.08-6.68-.38-2.05-.46-3.85-1.28-5.39-2.46-1.55-1.17-2.82-2.68-3.83-4.55-1-1.86-1.64-4.08-1.91-6.67-.26-2.52-.09-4.74.52-6.68.61-1.94,1.53-3.61,2.78-5,1.14-1.26,2.48-2.28,4.05-3.03,1.82-.17,3.65-.34,5.47-.5-1.57.75-2.92,1.75-4.06,3.01-1.26,1.38-2.19,3.04-2.81,4.98-.62,1.93-.8,4.16-.56,6.67.25,2.59.88,4.82,1.87,6.68.99,1.87,2.26,3.39,3.8,4.57,1.54,1.19,3.34,2.02,5.38,2.49,2.04.47,4.27.62,6.68.43"/>
              <path class="st6" d="M90.39,283.08c-1.82.16-3.65.32-5.47.5.16-.08.32-.15.48-.22.94-.41,1.91-.74,2.93-.99,1.83-.16,3.65-.32,5.48-.47-1.02.24-1.99.56-2.93.97-.16.07-.32.14-.48.22"/>
              <path class="st6" d="M93.8,281.89c-1.83.15-3.65.31-5.48.47.89-.21,1.81-.36,2.77-.45,1.83-.16,3.66-.31,5.48-.46-.95.08-1.88.22-2.77.43"/>
            </g>
          </g>
        </g>
        <path class="st38" d="M110.78,295.72c-.57.61-1.39,1.03-2.47,1.26-5.74,1.2-11.45,2.47-17.15,3.79.76,2.01,1.97,3.41,3.61,4.21,1.65.8,3.62,1.11,5.94.93,1.73-.13,3.3-.5,4.74-1.12,1.43-.61,2.58-1.23,3.46-1.86.6.28,1.1.7,1.51,1.24.41.54.63,1.14.68,1.79.05.82-.17,1.55-.69,2.22-.51.67-1.24,1.26-2.17,1.77-.93.51-2.04.94-3.34,1.28-1.3.34-2.7.56-4.22.68-2.41.19-4.64.05-6.68-.43-2.04-.47-3.84-1.31-5.38-2.49-1.54-1.18-2.81-2.7-3.8-4.57-.99-1.87-1.62-4.09-1.87-6.68-.25-2.52-.06-4.74.56-6.67.62-1.94,1.55-3.6,2.81-4.98,1.26-1.38,2.77-2.46,4.54-3.23,1.77-.77,3.67-1.23,5.7-1.4,2.09-.17,4.02,0,5.8.5,1.79.5,3.34,1.28,4.64,2.31,1.3,1.03,2.35,2.3,3.14,3.82.8,1.52,1.25,3.19,1.37,5.02.07,1.14-.18,2-.74,2.62ZM90.2,295.47c4.57-1.08,9.16-2.12,13.76-3.13-.28-1.49-.97-2.75-2.11-3.79-1.14-1.04-2.74-1.48-4.81-1.32-2.06.17-3.73.97-5.01,2.4-1.28,1.44-1.89,3.38-1.84,5.83"/>
      </g>
      <g class="st24">
        <g class="st24">
          <path class="st6" d="M68.25,293.78c-1.8.21-3.61.42-5.41.63,1.32-1.23,1.84-2.93,1.59-5.11-.25-2.1-1.11-3.59-2.62-4.47-1.5-.89-3.57-1.17-6.19-.84,1.82-.23,3.65-.46,5.48-.68,2.63-.32,4.69-.02,6.19.88,1.5.89,2.35,2.39,2.59,4.49.24,2.18-.29,3.88-1.62,5.1Z"/>
          <g class="st36">
            <g class="st24">
              <path class="st6" d="M68.25,293.78c-1.8.21-3.61.42-5.41.63,1.32-1.23,1.84-2.93,1.59-5.11-.25-2.1-1.11-3.59-2.62-4.47-1.5-.89-3.57-1.17-6.19-.84,1.82-.23,3.65-.46,5.48-.68,2.63-.32,4.69-.02,6.19.88,1.5.89,2.35,2.39,2.59,4.49.24,2.18-.29,3.88-1.62,5.1"/>
            </g>
          </g>
        </g>
        <g class="st24">
          <path class="st6" d="M62.51,296.05c-1.8.22-3.6.44-5.4.67,2.5-.32,4.42-1.09,5.73-2.31,1.8-.22,3.61-.43,5.41-.63-1.33,1.21-3.24,1.97-5.75,2.27Z"/>
          <g class="st4">
            <g class="st24">
              <path class="st6" d="M62.51,296.05c-1.8.22-3.6.44-5.4.67.77-.1,1.49-.24,2.15-.42,1.8-.22,3.6-.44,5.4-.66-.66.18-1.38.32-2.15.41"/>
              <path class="st6" d="M64.66,295.64c-1.8.21-3.6.43-5.4.66.74-.21,1.4-.47,2-.78,1.8-.22,3.6-.44,5.4-.64-.6.31-1.27.56-2,.77"/>
              <path class="st6" d="M66.66,294.87c-1.8.21-3.6.42-5.4.64.6-.31,1.13-.68,1.58-1.1,1.8-.22,3.61-.43,5.41-.63-.46.42-.99.78-1.59,1.09"/>
            </g>
          </g>
        </g>
        <path class="st35" d="M58.06,296.6c-1.8.23-3.6.46-5.39.7,1.48-.2,2.96-.39,4.44-.58,1.8-.23,3.6-.45,5.4-.67-1.48.18-2.96.36-4.45.55Z"/>
        <g class="st24">
          <path class="st6" d="M49.99,279.5c-1.83.24-3.67.49-5.5.75.65-.29,1.39-.58,2.2-.86.81-.27,1.65-.52,2.53-.74.88-.22,1.77-.41,2.66-.56.89-.16,1.74-.29,2.55-.39,1.84-.23,3.68-.46,5.52-.69-.81.1-1.66.22-2.55.38-.89.15-1.78.33-2.67.54-.88.22-1.73.46-2.54.73-.81.27-1.55.56-2.2.84Z"/>
          <g class="st1">
            <g class="st24">
              <path class="st6" d="M49.99,279.5c-1.83.24-3.67.49-5.5.75.65-.29,1.39-.58,2.2-.86.45-.15.91-.3,1.39-.43,1.84-.25,3.67-.49,5.51-.73-.47.13-.94.27-1.39.42-.81.27-1.55.56-2.2.84"/>
              <path class="st6" d="M53.58,278.23c-1.84.24-3.67.48-5.51.73.37-.11.76-.21,1.14-.31.88-.22,1.77-.41,2.66-.56.89-.16,1.74-.29,2.55-.39,1.84-.23,3.68-.46,5.52-.69-.81.1-1.66.22-2.55.38-.89.15-1.78.33-2.67.54-.39.1-.77.2-1.15.3"/>
            </g>
          </g>
        </g>
        <g class="st24">
          <path class="st6" d="M56.78,316.01c-1.76.23-3.52.47-5.27.71-1.55.21-2.67.09-3.39-.39-.71-.47-1.16-1.37-1.35-2.7,1.76-.25,3.53-.5,5.29-.74.18,1.33.63,2.23,1.33,2.71.71.49,1.83.62,3.38.41Z"/>
          <g class="st18">
            <g class="st24">
              <path class="st6" d="M56.78,316.01c-1.76.23-3.52.47-5.27.71-1.55.21-2.67.09-3.39-.39-.71-.47-1.16-1.37-1.35-2.7,1.76-.25,3.53-.5,5.29-.74.18,1.33.63,2.23,1.33,2.71.71.49,1.83.62,3.38.41"/>
            </g>
          </g>
        </g>
        <path class="st6" d="M52.06,312.89c-1.77.24-3.53.49-5.29.74-1.44-10.11-2.88-20.21-4.32-30.32,1.83-.26,3.66-.51,5.48-.76,1.38,10.12,2.75,20.23,4.12,30.35Z"/>
        <g class="st24">
          <path class="st6" d="M47.93,282.54c-1.83.25-3.66.5-5.48.76-.11-.76.02-1.37.38-1.84.37-.46.92-.88,1.65-1.22,1.83-.26,3.67-.51,5.5-.75-.73.34-1.29.75-1.66,1.21-.37.46-.5,1.08-.39,1.83Z"/>
          <g class="st17">
            <g class="st24">
              <path class="st6" d="M47.93,282.54c-1.83.25-3.66.5-5.48.76-.11-.76.02-1.37.38-1.84.31-.4.77-.76,1.35-1.07,1.83-.26,3.67-.51,5.5-.75-.59.31-1.04.67-1.36,1.06-.37.46-.5,1.08-.39,1.83"/>
              <path class="st6" d="M49.69,279.65c-1.83.24-3.67.5-5.5.75.1-.05.2-.1.3-.15,1.83-.26,3.67-.51,5.5-.75-.1.05-.2.1-.3.15"/>
            </g>
          </g>
        </g>
        <path class="st38" d="M73.02,278.98c3.08,1.98,4.8,4.93,5.19,8.81.4,3.89-.66,7.12-3.11,9.71-2.47,2.6-6.24,4.18-11.34,4.79-1.62.19-3.23.39-4.84.6.51,4.05,1.02,8.11,1.54,12.16-.36.13-.87.29-1.53.5-.66.2-1.38.36-2.15.46-1.55.2-2.67.07-3.38-.41-.71-.48-1.15-1.38-1.33-2.71-1.38-10.12-2.75-20.23-4.12-30.35-.1-.76.02-1.37.39-1.83.37-.46.93-.87,1.66-1.21.65-.29,1.39-.57,2.2-.84.81-.27,1.65-.5,2.54-.73.88-.21,1.77-.4,2.67-.54.89-.16,1.74-.28,2.55-.38,5.63-.68,10.01,0,13.08,1.98ZM68.25,293.78c1.32-1.22,1.86-2.92,1.62-5.1-.23-2.1-1.09-3.6-2.59-4.49-1.5-.9-3.56-1.19-6.19-.88-1.83.22-3.36.54-4.6.94.52,4.12,1.04,8.23,1.56,12.35,1.48-.19,2.96-.37,4.45-.55,2.51-.3,4.42-1.06,5.75-2.27"/>
      </g>
      <g class="st24">
        <g class="st24">
          <g class="st45">
            <g class="st24">
              <path class="st22" d="M130.81,303.87c-1.78.08-3.56.16-5.34.24.47-.02.94-.08,1.42-.18,1.78-.08,3.56-.16,5.34-.23-.48.09-.95.15-1.42.17"/>
              <path class="st30" d="M132.23,303.7c-1.78.07-3.56.15-5.34.23.23-.05.47-.1.7-.17.6-.16,1.16-.36,1.66-.58,1.78-.08,3.56-.15,5.35-.22-.5.21-1.06.41-1.66.57-.24.06-.47.12-.7.16"/>
              <path class="st33" d="M134.6,302.98c-1.78.07-3.56.14-5.35.22.09-.04.18-.08.27-.12,1.78-.08,3.56-.15,5.35-.22-.09.04-.18.08-.27.12"/>
            </g>
          </g>
        </g>
        <path class="st35" d="M125.13,281.11c-1.83.09-3.66.18-5.48.28,3.12-.17,6.23-.32,9.35-.45,1.83-.08,3.66-.15,5.48-.22-3.12.11-6.24.25-9.36.39Z"/>
        <g>
          <path class="st6" d="M129.28,310.11c-1.77.08-3.53.16-5.3.25-3.24.16-5.83-.42-7.79-1.74-1.96-1.33-3.04-3.65-3.25-6.98,1.79-.11,3.57-.22,5.36-.32.19,3.32,1.26,5.66,3.21,7,1.95,1.34,4.54,1.94,7.78,1.79Z"/>
          <g class="st2">
            <g class="st24">
              <path class="st6" d="M129.28,310.11c-1.77.08-3.53.16-5.3.25-3.24.16-5.83-.42-7.79-1.74-1.96-1.33-3.04-3.65-3.25-6.98,1.79-.11,3.57-.22,5.36-.32.19,3.32,1.26,5.66,3.21,7,1.95,1.34,4.54,1.94,7.78,1.79"/>
            </g>
          </g>
        </g>
        <path class="st6" d="M118.3,301.32c-1.79.1-3.57.21-5.36.32-.59-9.31-1.17-18.63-1.76-27.94,1.84-.12,3.69-.23,5.53-.33.53,9.32,1.06,18.64,1.58,27.95Z"/>
        <g>
          <path class="st6" d="M116.71,273.36c-1.84.1-3.69.21-5.53.33.34-.1.83-.24,1.49-.4.66-.17,1.37-.27,2.14-.32,1.85-.11,3.69-.21,5.54-.31-.77.04-1.49.14-2.14.3-.66.15-1.15.29-1.49.39Z"/>
          <g class="st41">
            <g class="st24">
              <path class="st6" d="M116.71,273.36c-1.84.1-3.69.21-5.53.33.34-.1.83-.24,1.49-.4.13-.03.27-.06.4-.09,1.84-.11,3.69-.22,5.53-.32-.14.03-.27.06-.4.09-.66.15-1.15.29-1.49.39"/>
              <path class="st6" d="M118.61,272.88c-1.85.1-3.69.21-5.53.32.54-.11,1.12-.19,1.74-.22,1.85-.11,3.69-.21,5.54-.31-.61.03-1.19.1-1.74.21"/>
            </g>
          </g>
        </g>
        <path class="st38" d="M120.34,272.67c1.5-.08,2.62.14,3.35.63.74.49,1.13,1.41,1.19,2.74.08,1.69.16,3.37.24,5.06,3.12-.15,6.24-.28,9.36-.39.23.32.43.74.62,1.26.19.52.29,1.09.31,1.7.04,1.06-.19,1.83-.67,2.35-.49.5-1.15.77-2,.81-2.44.1-4.89.2-7.33.32.21,4.43.42,8.85.63,13.28.06,1.3.51,2.22,1.34,2.75.83.54,1.97.77,3.42.7.7-.03,1.41-.14,2.12-.33.72-.19,1.37-.42,1.94-.69.34.31.63.71.88,1.16.25.46.38.99.41,1.61.04,1.22-.48,2.24-1.56,3.08-1.08.83-2.85,1.3-5.31,1.41-3.24.14-5.83-.45-7.78-1.79-1.95-1.34-3.02-3.67-3.21-7-.53-9.32-1.06-18.64-1.58-27.95.34-.1.83-.24,1.49-.39.66-.16,1.37-.26,2.14-.3Z"/>
      </g>
      <g>
        <g class="st24">
          <path class="st8" d="M178.19,279.58c-1.83-.02-3.66-.04-5.49-.05-1.02-.7-2.36-1.3-4.05-1.82-1.68-.51-3.53-.77-5.53-.76,1.84,0,3.67,0,5.51,0,2,0,3.85.28,5.52.79,1.68.53,3.02,1.14,4.04,1.84Z"/>
          <g class="st26">
            <g class="st24">
              <path class="st8" d="M178.19,279.58c-1.83-.02-3.66-.04-5.49-.05-1.02-.7-2.36-1.3-4.05-1.82-1.68-.51-3.53-.77-5.53-.76,1.84,0,3.67,0,5.51,0,2,0,3.85.28,5.52.79,1.68.53,3.02,1.14,4.04,1.84"/>
            </g>
          </g>
        </g>
        <g class="st24">
          <path class="st8" d="M166.47,302.87c-1.78,0-3.56,0-5.35.02,2.4-.02,4.15-.48,5.27-1.39,1.12-.92,1.68-2.07,1.68-3.45,0-1.26-.44-2.27-1.32-3.03-.87-.76-2.21-1.39-4.01-1.91,1.8,0,3.6-.01,5.41,0,1.8.53,3.13,1.17,4,1.93.87.76,1.31,1.77,1.3,3.03-.01,1.38-.58,2.52-1.7,3.44-1.12.9-2.88,1.35-5.28,1.35Z"/>
          <g class="st29">
            <g class="st24">
              <path class="st8" d="M166.47,302.87c-1.78,0-3.56,0-5.35.02.79,0,1.5-.06,2.15-.16,1.78,0,3.56,0,5.35,0-.65.1-1.37.15-2.15.15"/>
              <path class="st8" d="M168.62,302.73c-1.78,0-3.56,0-5.35,0,.65-.1,1.23-.25,1.74-.45,1.78,0,3.57,0,5.35,0-.51.19-1.1.34-1.75.44"/>
              <path class="st8" d="M170.37,302.29c-1.78,0-3.57,0-5.35,0,.53-.21.99-.47,1.38-.78,1.12-.92,1.68-2.07,1.68-3.45,0-1.26-.44-2.27-1.32-3.03-.87-.76-2.21-1.39-4.01-1.91,1.8,0,3.6-.01,5.41,0,1.8.53,3.13,1.17,4,1.93.87.76,1.31,1.77,1.3,3.03-.01,1.38-.58,2.52-1.7,3.44-.39.31-.85.57-1.38.77"/>
            </g>
          </g>
        </g>
        <path class="st8" d="M168.16,293.12c-1.8,0-3.6,0-5.41,0-1.34-.4-2.68-.8-4.03-1.2,1.8-.02,3.61-.03,5.41-.03,1.34.4,2.68.81,4.02,1.22Z"/>
        <g class="st24">
          <path class="st8" d="M164.14,291.9c-1.8,0-3.61.02-5.41.03-1.6-.47-3.05-1-4.36-1.6-1.31-.59-2.44-1.29-3.37-2.11-.94-.81-1.67-1.78-2.2-2.88-.54-1.11-.82-2.43-.85-3.98-.07-3.29,1.17-5.93,3.75-7.91,2.57-1.97,6.15-2.99,10.71-3.02,1.85,0,3.7-.01,5.55,0-4.55,0-8.14,1-10.73,2.95-2.59,1.96-3.85,4.6-3.8,7.89.02,1.55.3,2.88.83,3.98.52,1.11,1.25,2.08,2.18,2.9.93.83,2.06,1.53,3.36,2.14,1.31.6,2.76,1.14,4.35,1.62Z"/>
          <g class="st9">
            <g class="st24">
              <path class="st8" d="M164.14,291.9c-1.8,0-3.61.02-5.41.03-1.6-.47-3.05-1-4.36-1.6-1.31-.59-2.44-1.29-3.37-2.11-.94-.81-1.67-1.78-2.2-2.88-.54-1.11-.82-2.43-.85-3.98-.07-3.29,1.17-5.93,3.75-7.91.93-.71,2-1.31,3.2-1.77,1.85-.02,3.69-.04,5.54-.06-1.2.46-2.27,1.04-3.21,1.75-2.59,1.96-3.85,4.6-3.8,7.89.02,1.55.3,2.88.83,3.98.52,1.11,1.25,2.08,2.18,2.9.93.83,2.06,1.53,3.36,2.14,1.31.6,2.76,1.14,4.35,1.62"/>
              <path class="st8" d="M160.42,271.62c-1.85.01-3.69.03-5.54.06,1.11-.43,2.34-.75,3.68-.96,1.85-.02,3.7-.03,5.55-.03-1.34.2-2.57.51-3.68.94"/>
              <path class="st8" d="M164.11,270.68c-1.85,0-3.7.02-5.55.03,1.19-.19,2.47-.28,3.83-.29,1.85,0,3.7-.01,5.55,0-1.36,0-2.64.09-3.83.26"/>
            </g>
          </g>
        </g>
        <g class="st24">
          <path class="st8" d="M166.65,309.4c-1.77,0-3.54,0-5.3.02-1.89.01-3.63-.13-5.21-.44-1.59-.3-2.96-.72-4.11-1.25-1.17-.53-2.07-1.16-2.73-1.9-.65-.73-.99-1.55-1.01-2.45-.02-.94.24-1.74.78-2.43.55-.68,1.19-1.19,1.94-1.53,1.79-.03,3.58-.06,5.37-.08-.75.33-1.4.85-1.95,1.52-.55.68-.81,1.49-.8,2.42.01.89.35,1.71,1,2.45.65.75,1.55,1.38,2.71,1.92,1.15.54,2.52.96,4.11,1.28,1.58.31,3.32.47,5.21.47Z"/>
          <g class="st13">
            <g class="st24">
              <path class="st8" d="M166.65,309.4c-1.77,0-3.54,0-5.3.02-1.89.01-3.63-.13-5.21-.44-1.59-.3-2.96-.72-4.11-1.25-1.17-.53-2.07-1.16-2.73-1.9-.65-.73-.99-1.55-1.01-2.45-.02-.94.24-1.74.78-2.43.55-.68,1.19-1.19,1.94-1.53,1.79-.03,3.58-.06,5.37-.08-.75.33-1.4.85-1.95,1.52-.55.68-.81,1.49-.8,2.42.01.89.35,1.71,1,2.45.65.75,1.55,1.38,2.71,1.92,1.15.54,2.52.96,4.11,1.28,1.58.31,3.32.47,5.21.47"/>
            </g>
          </g>
        </g>
        <path class="st10" d="M167.94,270.42c1.8,0,3.46.15,4.99.42,1.52.28,2.83.65,3.95,1.13,1.1.48,1.97,1.08,2.57,1.77.61.7.91,1.48.89,2.34-.01.81-.22,1.51-.64,2.1-.41.58-.92,1.05-1.52,1.41-1.02-.71-2.36-1.32-4.04-1.84-1.67-.52-3.52-.79-5.52-.79-2.22,0-3.9.38-5.04,1.14-1.15.75-1.71,1.79-1.71,3.09,0,1.06.4,1.87,1.18,2.43.79.57,2.03,1.12,3.72,1.64,1.2.37,2.4.73,3.6,1.11,3.66,1.08,6.49,2.55,8.48,4.41,1.99,1.86,2.94,4.36,2.89,7.49-.03,1.67-.39,3.19-1.07,4.56-.69,1.37-1.67,2.54-2.93,3.52-1.27.98-2.84,1.74-4.71,2.27-1.88.54-4,.8-6.38.8-1.89,0-3.63-.16-5.21-.47-1.58-.31-2.95-.74-4.11-1.28-1.16-.54-2.06-1.17-2.71-1.92-.65-.74-.98-1.56-1-2.45-.01-.94.25-1.74.8-2.42.55-.67,1.2-1.19,1.95-1.52,1.05.89,2.43,1.69,4.13,2.44,1.7.73,3.69,1.1,5.97,1.1,2.4,0,4.16-.45,5.28-1.35,1.12-.91,1.69-2.06,1.7-3.44,0-1.26-.42-2.27-1.3-3.03-.86-.76-2.2-1.41-4-1.93-1.34-.41-2.68-.82-4.02-1.22-1.6-.48-3.05-1.02-4.35-1.62-1.31-.6-2.43-1.31-3.36-2.14-.93-.82-1.66-1.79-2.18-2.9-.53-1.11-.8-2.44-.83-3.98-.05-3.29,1.21-5.93,3.8-7.89,2.58-1.95,6.17-2.95,10.73-2.95Z"/>
      </g>
      <g>
        <g class="st24">
          <path class="st8" d="M211.49,310.03c-1.77-.09-3.54-.18-5.3-.26-1.48-.07-2.55-.38-3.23-.94-.68-.56-.98-1.51-.93-2.85,1.78.07,3.55.15,5.33.24-.06,1.34.24,2.29.91,2.86.67.56,1.74.88,3.22.96Z"/>
          <g class="st47">
            <g class="st24">
              <path class="st8" d="M211.49,310.03c-1.77-.09-3.54-.18-5.3-.26-1.48-.07-2.55-.38-3.23-.94-.68-.56-.98-1.51-.93-2.85,1.78.07,3.55.15,5.33.24-.06,1.34.24,2.29.91,2.86.67.56,1.74.88,3.22.96"/>
            </g>
          </g>
        </g>
        <path class="st8" d="M207.36,306.22c-1.78-.08-3.55-.16-5.33-.24.2-4.89.41-9.79.61-14.68,1.81.07,3.61.16,5.42.24-.23,4.89-.47,9.79-.7,14.68Z"/>
        <g class="st24">
          <path class="st8" d="M208.06,291.54c-1.81-.09-3.61-.17-5.42-.24.08-2.03-.4-3.53-1.46-4.48-1.06-.96-2.49-1.47-4.25-1.54,1.82.06,3.64.13,5.46.21,1.77.07,3.19.6,4.24,1.56,1.05.96,1.53,2.46,1.43,4.49Z"/>
          <g class="st23">
            <g class="st24">
              <path class="st8" d="M208.06,291.54c-1.81-.09-3.61-.17-5.42-.24.08-2.03-.4-3.53-1.46-4.48-1.06-.96-2.49-1.47-4.25-1.54,1.82.06,3.64.13,5.46.21,1.77.07,3.19.6,4.24,1.56,1.05.96,1.53,2.46,1.43,4.49"/>
            </g>
          </g>
        </g>
        <g class="st24">
          <path class="st8" d="M196.71,280.81c-1.83-.06-3.66-.12-5.49-.17.94-.41,2.03-.77,3.25-1.06,1.22-.29,2.58-.4,4.07-.35,1.83.07,3.66.14,5.49.22-1.49-.06-2.85.04-4.07.32-1.22.29-2.31.64-3.26,1.04Z"/>
          <g class="st25">
            <g class="st24">
              <path class="st8" d="M196.71,280.81c-1.83-.06-3.66-.12-5.49-.17.4-.18.83-.34,1.29-.5,1.83.05,3.66.11,5.49.18-.46.15-.89.32-1.29.49"/>
              <path class="st8" d="M198,280.32c-1.83-.07-3.66-.12-5.49-.18.61-.21,1.27-.4,1.96-.57.48-.11.99-.2,1.52-.26,1.83.06,3.66.13,5.49.2-.53.06-1.03.14-1.52.25-.7.16-1.35.35-1.97.55"/>
              <path class="st8" d="M201.48,279.52c-1.83-.07-3.66-.14-5.49-.2.8-.09,1.65-.12,2.55-.09,1.83.07,3.66.14,5.49.22-.9-.04-1.75-.01-2.55.07"/>
            </g>
          </g>
        </g>
        <g class="st24">
          <path class="st8" d="M192.16,309.23c-1.77-.05-3.54-.1-5.31-.14-1.44-.03-2.5-.32-3.19-.86-.68-.54-1.02-1.49-.99-2.83,1.78.03,3.55.07,5.33.12-.03,1.34.3,2.28.98,2.83.69.55,1.75.84,3.19.88Z"/>
          <g class="st5">
            <g class="st24">
              <path class="st8" d="M192.16,309.23c-1.77-.05-3.54-.1-5.31-.14-1.44-.03-2.5-.32-3.19-.86-.68-.54-1.02-1.49-.99-2.83,1.78.03,3.55.07,5.33.12-.03,1.34.3,2.28.98,2.83.69.55,1.75.84,3.19.88"/>
            </g>
          </g>
        </g>
        <path class="st8" d="M187.99,305.51c-1.78-.04-3.55-.08-5.33-.12.23-12.16.45-24.31.68-36.47,1.85.03,3.71.08,5.56.12-.3,12.16-.61,24.31-.91,36.47Z"/>
        <g class="st24">
          <path class="st8" d="M188.9,269.05c-1.85-.05-3.71-.09-5.56-.12.34-.11.85-.22,1.53-.3.67-.09,1.4-.12,2.22-.1,1.85.04,3.71.09,5.56.14-.82-.02-1.55,0-2.22.09-.68.08-1.19.19-1.53.29Z"/>
          <g class="st19">
            <g class="st24">
              <path class="st8" d="M188.9,269.05c-1.85-.05-3.71-.09-5.56-.12.34-.11.85-.22,1.53-.3.01,0,.02,0,.03,0,1.85.04,3.71.08,5.56.13-.01,0-.02,0-.03,0-.68.08-1.19.19-1.53.29"/>
              <path class="st8" d="M190.47,268.75c-1.85-.05-3.71-.09-5.56-.13.66-.08,1.38-.12,2.19-.1,1.85.04,3.71.09,5.56.14-.81-.02-1.53,0-2.19.09"/>
            </g>
          </g>
        </g>
        <path class="st10" d="M192.66,268.66c1.5.04,2.62.34,3.34.9.72.55,1.04,1.5,1,2.84-.1,2.8-.19,5.61-.29,8.41.95-.41,2.04-.76,3.26-1.04,1.23-.28,2.59-.39,4.07-.32,3.87.16,6.9,1.27,9.09,3.31,2.19,2.03,3.16,4.98,2.94,8.83-.34,6.05-.69,12.1-1.03,18.15-.34.06-.83.13-1.47.22-.64.08-1.33.11-2.07.07-1.48-.08-2.55-.39-3.22-.96-.67-.56-.98-1.52-.91-2.86.23-4.89.47-9.79.7-14.68.1-2.03-.38-3.53-1.43-4.49-1.06-.97-2.48-1.49-4.24-1.56-1.14-.05-2.2.08-3.19.4-.98.31-1.89.69-2.7,1.16-.25,7.27-.5,14.55-.75,21.82-.38.07-.87.15-1.49.26-.61.1-1.31.14-2.1.11-1.44-.04-2.5-.33-3.19-.88-.68-.55-1.01-1.49-.98-2.83.3-12.16.61-24.31.91-36.47.35-.11.85-.21,1.53-.29.67-.08,1.4-.11,2.22-.09Z"/>
      </g>
      <g class="st24">
        <g>
          <path class="st8" d="M236.93,306.07c-1.78-.15-3.55-.29-5.33-.42,2.26.17,4.09-.48,5.48-1.98,1.78.15,3.56.3,5.34.46-1.41,1.49-3.23,2.14-5.5,1.95Z"/>
          <g class="st44">
            <g class="st24">
              <path class="st8" d="M236.93,306.07c-1.78-.15-3.55-.29-5.33-.42.44.03.87.04,1.28,0,1.78.14,3.55.28,5.33.43-.41.03-.84.02-1.28-.01"/>
              <path class="st8" d="M238.21,306.08c-1.78-.15-3.55-.29-5.33-.43.51-.04.99-.12,1.44-.26,1.78.14,3.56.29,5.33.44-.46.13-.94.21-1.45.25"/>
              <path class="st8" d="M239.66,305.83c-1.78-.15-3.56-.3-5.33-.44,1.06-.31,1.98-.89,2.76-1.73,1.78.15,3.56.3,5.34.46-.79.84-1.71,1.41-2.77,1.72"/>
            </g>
          </g>
        </g>
        <g>
          <path class="st8" d="M242.43,304.12c-1.78-.16-3.56-.31-5.34-.46,1.39-1.49,2.22-3.7,2.47-6.62.25-2.91-.21-5.23-1.38-6.93-1.17-1.71-2.9-2.66-5.17-2.83,1.82.14,3.63.28,5.45.43,2.28.19,4,1.14,5.16,2.86,1.16,1.71,1.6,4.03,1.34,6.94-.27,2.92-1.11,5.12-2.51,6.61Z"/>
          <g class="st31">
            <g class="st24">
              <path class="st8" d="M242.43,304.12c-1.78-.16-3.56-.31-5.34-.46,1.39-1.49,2.22-3.7,2.47-6.62.25-2.91-.21-5.23-1.38-6.93-1.17-1.71-2.9-2.66-5.17-2.83,1.82.14,3.63.28,5.45.43,2.28.19,4,1.14,5.16,2.86,1.16,1.71,1.6,4.03,1.34,6.94-.27,2.92-1.11,5.12-2.51,6.61"/>
            </g>
          </g>
        </g>
        <g>
          <path class="st8" d="M236.42,312.2c-1.76-.15-3.53-.29-5.29-.42-2.29-.17-4.33-.67-6.14-1.51-1.79-.84-3.31-1.95-4.55-3.36-1.23-1.4-2.16-3.06-2.77-4.99-.61-1.94-.86-4.1-.72-6.5.14-2.35.63-4.45,1.48-6.3.85-1.84,2-3.38,3.46-4.61,1.46-1.23,3.17-2.14,5.12-2.72,1.95-.58,4.11-.78,6.44-.61,1.83.14,3.66.28,5.48.44-2.34-.19-4.49,0-6.45.57-1.96.57-3.67,1.46-5.14,2.69-1.47,1.22-2.63,2.75-3.49,4.59-.86,1.84-1.37,3.93-1.52,6.29-.15,2.4.08,4.56.68,6.5.6,1.93,1.52,3.6,2.74,5.01,1.23,1.41,2.74,2.54,4.53,3.39,1.8.85,3.84,1.36,6.13,1.55Z"/>
          <g class="st0">
            <g class="st24">
              <path class="st8" d="M236.42,312.2c-1.76-.15-3.53-.29-5.29-.42-2.29-.17-4.33-.67-6.14-1.51-1.79-.84-3.31-1.95-4.55-3.36-1.23-1.4-2.16-3.06-2.77-4.99-.61-1.94-.86-4.1-.72-6.5.14-2.35.63-4.45,1.48-6.3.85-1.84,2-3.38,3.46-4.61,1.45-1.23,3.15-2.13,5.09-2.71,1.83.13,3.65.26,5.48.39-1.95.57-3.65,1.46-5.11,2.68-1.47,1.22-2.63,2.75-3.49,4.59-.86,1.84-1.37,3.93-1.52,6.29-.15,2.4.08,4.56.68,6.5.6,1.93,1.52,3.6,2.74,5.01,1.23,1.41,2.74,2.54,4.53,3.39,1.8.85,3.84,1.36,6.13,1.55"/>
              <path class="st8" d="M232.47,282.2c-1.83-.14-3.65-.27-5.48-.39,0,0,.02,0,.03,0,1.09-.32,2.23-.53,3.44-.62,1.83.13,3.66.27,5.48.42-1.21.08-2.36.28-3.45.6,0,0-.02,0-.03,0"/>
              <path class="st8" d="M235.95,281.6c-1.83-.14-3.66-.28-5.48-.42.96-.07,1.96-.07,3,.01,1.83.14,3.66.28,5.48.44-1.04-.09-2.04-.1-3-.03"/>
            </g>
          </g>
        </g>
        <path class="st38" d="M252.53,291.9c.55,1.95.7,4.09.46,6.39-.24,2.36-.81,4.43-1.72,6.24-.91,1.81-2.09,3.31-3.54,4.53-1.44,1.21-3.11,2.08-5.03,2.63-1.9.54-4,.71-6.29.52-2.29-.19-4.33-.7-6.13-1.55-1.79-.85-3.3-1.97-4.53-3.39-1.22-1.41-2.14-3.08-2.74-5.01-.6-1.94-.83-4.1-.68-6.5.15-2.35.66-4.45,1.52-6.29.86-1.84,2.02-3.37,3.49-4.59,1.47-1.22,3.18-2.12,5.14-2.69,1.96-.57,4.11-.76,6.45-.57,2.33.19,4.42.74,6.27,1.62,1.84.88,3.38,2.05,4.63,3.52,1.25,1.47,2.14,3.18,2.69,5.14ZM242.43,304.12c1.4-1.48,2.24-3.68,2.51-6.61.27-2.91-.18-5.23-1.34-6.94-1.16-1.72-2.88-2.67-5.16-2.86-2.28-.19-4.13.47-5.56,1.98-1.42,1.5-2.24,3.71-2.46,6.63-.22,2.96.24,5.28,1.38,6.96,1.14,1.68,2.84,2.6,5.11,2.79,2.26.19,4.09-.46,5.5-1.95"/>
      </g>
      <g>
        <g class="st24">
          <path class="st8" d="M277.25,308.02c-1.77-.23-3.55-.46-5.33-.68,1.58-1.32,2.58-3.55,2.98-6.69.41-3.27-.02-5.68-1.32-7.24-1.3-1.55-3.11-2.47-5.42-2.74,1.81.21,3.62.43,5.43.65,2.31.28,4.12,1.22,5.4,2.77,1.29,1.57,1.71,3.98,1.27,7.25-.42,3.14-1.43,5.37-3.02,6.67Z"/>
          <g class="st28">
            <g class="st24">
              <path class="st8" d="M277.25,308.02c-1.77-.23-3.55-.46-5.33-.68,1.58-1.32,2.58-3.55,2.98-6.69.41-3.27-.02-5.68-1.32-7.24-1.3-1.55-3.11-2.47-5.42-2.74,1.81.21,3.62.43,5.43.65,2.31.28,4.12,1.22,5.4,2.77,1.29,1.57,1.71,3.98,1.27,7.25-.42,3.14-1.43,5.37-3.02,6.67"/>
            </g>
          </g>
        </g>
        <g class="st24">
          <path class="st8" d="M271.17,309.53c-1.77-.22-3.54-.43-5.32-.64,2.47.29,4.48-.22,6.08-1.54,1.78.22,3.55.45,5.33.68-1.6,1.32-3.62,1.81-6.09,1.51Z"/>
          <g class="st40">
            <g class="st24">
              <path class="st8" d="M271.17,309.53c-1.77-.22-3.54-.43-5.32-.64.56.07,1.09.09,1.61.07,1.77.21,3.54.43,5.32.65-.51.01-1.05-.01-1.61-.08"/>
              <path class="st8" d="M272.77,309.61c-1.77-.22-3.54-.44-5.32-.65.61-.02,1.2-.1,1.75-.24,1.77.21,3.55.43,5.32.66-.55.13-1.13.21-1.75.23"/>
              <path class="st8" d="M274.52,309.38c-1.77-.23-3.54-.45-5.32-.66,1.02-.26,1.92-.71,2.72-1.38,1.78.22,3.55.45,5.33.68-.8.66-1.71,1.11-2.73,1.36"/>
            </g>
          </g>
        </g>
        <g class="st24">
          <path class="st8" d="M271.57,315.79c-1.76-.22-3.52-.43-5.28-.64-1.18-.14-2.26-.38-3.23-.72-.98-.34-1.85-.71-2.64-1.12,1.76.2,3.53.4,5.29.6.79.42,1.66.79,2.64,1.14.97.34,2.05.59,3.23.74Z"/>
          <g class="st7">
            <g class="st24">
              <path class="st8" d="M271.57,315.79c-1.76-.22-3.52-.43-5.28-.64-1.18-.14-2.26-.38-3.23-.72-.98-.34-1.85-.71-2.64-1.12,1.76.2,3.53.4,5.29.6.79.42,1.66.79,2.64,1.14.97.34,2.05.59,3.23.74"/>
            </g>
          </g>
        </g>
        <g class="st24">
          <path class="st8" d="M263.34,286.56c-1.82-.2-3.64-.4-5.46-.59,1.3-.56,2.88-1,4.76-1.3,1.87-.31,3.95-.33,6.24-.06,1.82.21,3.65.43,5.47.66-2.28-.28-4.37-.28-6.24.02-1.88.29-3.47.72-4.77,1.27Z"/>
          <g class="st39">
            <g class="st24">
              <path class="st8" d="M263.34,286.56c-1.82-.2-3.64-.4-5.46-.59.74-.32,1.57-.6,2.49-.84,1.82.2,3.64.4,5.46.6-.93.23-1.76.51-2.5.82"/>
              <path class="st8" d="M265.83,285.74c-1.82-.21-3.64-.41-5.46-.6.7-.18,1.46-.34,2.27-.46.78-.13,1.59-.21,2.43-.24,1.82.21,3.65.42,5.47.63-.85.02-1.66.1-2.44.22-.81.12-1.57.28-2.27.45"/>
              <path class="st8" d="M270.54,285.07c-1.82-.22-3.65-.43-5.47-.63,1.2-.04,2.47.02,3.81.17,1.82.21,3.65.43,5.47.66-1.34-.17-2.61-.23-3.81-.2"/>
            </g>
          </g>
        </g>
        <g class="st24">
          <path class="st8" d="M260.83,325.13c-1.74-.2-3.48-.39-5.22-.57-1.41-.15-2.44-.52-3.06-1.12-.63-.6-.89-1.57-.75-2.9,1.75.18,3.49.36,5.24.55-.14,1.33.11,2.3.74,2.9.62.6,1.65.98,3.06,1.14Z"/>
          <g class="st20">
            <g class="st24">
              <path class="st8" d="M260.83,325.13c-1.74-.2-3.48-.39-5.22-.57-1.41-.15-2.44-.52-3.06-1.12-.63-.6-.89-1.57-.75-2.9,1.75.18,3.49.36,5.24.55-.14,1.33.11,2.3.74,2.9.62.6,1.65.98,3.06,1.14"/>
            </g>
          </g>
        </g>
        <path class="st8" d="M257.04,321.09c-1.75-.19-3.49-.37-5.24-.55,1.04-10.26,2.09-20.51,3.13-30.77,1.81.18,3.62.37,5.43.57-1.11,10.25-2.21,20.5-3.32,30.75Z"/>
        <g class="st24">
          <path class="st8" d="M260.36,290.35c-1.81-.2-3.62-.39-5.43-.57.1-.97.38-1.74.85-2.3.46-.57,1.17-1.07,2.11-1.5,1.82.19,3.64.39,5.46.59-.95.43-1.65.92-2.12,1.49-.47.56-.76,1.33-.86,2.3Z"/>
          <g class="st14">
            <g class="st24">
              <path class="st8" d="M260.36,290.35c-1.81-.2-3.62-.39-5.43-.57.1-.97.38-1.74.85-2.3.46-.57,1.17-1.07,2.11-1.5,1.82.19,3.64.39,5.46.59-.95.43-1.65.92-2.12,1.49-.47.56-.76,1.33-.86,2.3"/>
            </g>
          </g>
        </g>
        <path class="st10" d="M288.08,295.52c.53,2,.6,4.31.23,6.93-.36,2.54-1.05,4.7-2.06,6.48-1.01,1.79-2.25,3.24-3.72,4.35-1.46,1.12-3.13,1.87-4.99,2.28-1.87.41-3.86.49-5.98.22-1.18-.15-2.26-.4-3.23-.74-.98-.34-1.85-.72-2.64-1.14-.44,3.72-.87,7.43-1.31,11.15-.37.04-.87.08-1.48.14-.62.05-1.32.03-2.08-.06-1.41-.16-2.44-.53-3.06-1.14-.63-.6-.88-1.57-.74-2.9,1.11-10.25,2.21-20.5,3.32-30.75.1-.97.4-1.74.86-2.3.47-.56,1.17-1.06,2.12-1.49,1.3-.55,2.88-.98,4.77-1.27,1.87-.3,3.96-.3,6.24-.02,2.32.29,4.44.86,6.32,1.7,1.89.84,3.46,1.98,4.73,3.39,1.26,1.43,2.15,3.14,2.68,5.15ZM277.25,308.02c1.59-1.31,2.6-3.53,3.02-6.67.43-3.27.01-5.68-1.27-7.25-1.29-1.56-3.1-2.49-5.4-2.77-1.13-.14-2.15-.12-3.04.06-.9.18-1.68.4-2.35.65-.61,5.19-1.22,10.38-1.83,15.57.62.48,1.31.89,2.08,1.23.77.35,1.68.57,2.7.7,2.47.3,4.49-.19,6.09-1.51"/>
      </g>
    </g>
  </g>
  <g id="Camada_10">
    <g>
      <path class="st27" d="M257.81,127.03c.87,2.43-.66,5.22-3.65,6.97-12.64,7.38-24.59,15.31-35.88,23.69-23.1,17.31-43.18,36.64-59.61,57.29-1.7,2.14-9.18,1.42-15.02-1.24-13.19-6-13.03-25.41-10.33-60.04,7.11-91.07,17.5-103.85,29.28-109.58,6.9-3.35,13.49-3.91,16.69-3.98,8.19-.19,19.26,2.19,54.26,40.92,21.41,23.7,20.45,35.23,24.27,45.96Z"/>
      <path class="st21" d="M247.37,137.85c.7,1.96-.55,4.2-3,5.62-10.32,5.97-20.07,12.39-29.29,19.17-18.86,14-35.27,29.61-48.71,46.28-1.39,1.72-7.48,1.17-12.24-.96-10.73-4.79-10.55-20.42-8.26-48.31,6.03-73.34,14.53-83.65,24.14-88.29,5.63-2.72,11-3.18,13.61-3.25,6.67-.17,15.69,1.71,44.1,32.81,17.38,19.02,16.57,28.31,19.65,36.94Z"/>
      <path class="st27" d="M300.7,127.03c-.87,2.43.66,5.22,3.65,6.97,12.64,7.38,24.59,15.31,35.88,23.69,23.1,17.31,43.18,36.64,59.61,57.29,1.7,2.14,9.18,1.42,15.02-1.24,13.19-6,13.03-25.41,10.33-60.04-7.11-91.07-17.5-103.85-29.28-109.58-6.9-3.35-13.49-3.91-16.69-3.98-8.19-.19-19.26,2.19-54.26,40.92-21.41,23.7-20.45,35.23-24.27,45.96Z"/>
      <path class="st21" d="M311.14,137.85c-.7,1.96.55,4.2,3,5.62,10.32,5.97,20.07,12.39,29.29,19.17,18.86,14,35.27,29.61,48.71,46.28,1.39,1.72,7.48,1.17,12.24-.96,10.73-4.79,10.55-20.42,8.26-48.31-6.03-73.34-14.53-83.65-24.14-88.29-5.63-2.72-11-3.18-13.61-3.25-6.67-.17-15.69,1.71-44.1,32.81-17.38,19.02-16.57,28.31-19.65,36.94Z"/>
      <polygon class="st10" points="279.25 106.58 279.25 275.2 110.64 275.2 447.87 275.2 279.25 106.58"/>
      <polyline class="st15" points="279.24 106.6 230.67 155.16 194.95 190.88 110.63 275.21 147.64 169.86"/>
      <polyline class="st15" points="219.48 117.51 230.67 155.16 194.95 190.88 194.95 129.11"/>
      <path class="st15" d="M363.56,129.11v61.77l-35.72-35.72,11.2-37.65c8.54,3.22,16.71,7.13,24.52,11.6Z"/>
      <polyline class="st15" points="363.56 190.88 447.89 275.21 410.88 169.86"/>
      <polyline class="st15" points="279.24 169.86 215.97 169.86 342.53 169.86"/>
      <circle class="st27" cx="279.24" cy="275.2" r="168.62"/>
      <path class="st43" d="M255.79,174.17c1.13,5.72-4.94-1.36-10.78-7.08-5.5-5.71-14.67-10.63-25.54-10.48-13.86.22-23.13,7.89-27.16,14.47-3.75,5.62-7.94,12.19-8.51,7.92-1.43-8.47,8.14-27.31,30.21-30.16,22.22-3.41,39.96,13.65,41.78,25.33Z"/>
      <path class="st43" d="M302.72,174.17c-1.13,5.72,4.94-1.36,10.78-7.08,5.5-5.71,14.67-10.63,25.54-10.48,13.86.22,23.13,7.89,27.16,14.47,3.75,5.62,7.94,12.19,8.51,7.92,1.43-8.47-8.14-27.31-30.21-30.16-22.22-3.41-39.96,13.65-41.78,25.33Z"/>
      <g>
        <circle class="st10" cx="279.25" cy="476.74" r="269.79"/>
        <g class="st46">
          <path class="st21" d="M344.14,214.86c-1.95,5.59-4.04,11.14-6.25,16.62-10.4,26.2-23.41,51.52-39,75.54-4.19,6.5-8.58,12.89-13.19,19.16-13.65,18.92-29.06,36.91-46.06,53.77-4.99,4.95-10.08,9.78-15.36,14.5-2.86,2.6-5.8,5.17-8.77,7.71-2.82,2.41-5.66,4.78-8.52,7.07-5.92,4.85-12,9.51-18.12,14-19.42,14.16-39.7,26.56-60.64,37.09-6.9,3.51-13.87,6.82-20.94,9.9-25.57,11.3-51.95,19.97-78.76,26.04-5.96,1.39-11.98,2.66-18.03,3.75-.41-4.63-.7-9.25-.82-13.92-.57-15.98.28-31.97,2.58-47.81,7.72-2.25,15.37-4.76,22.93-7.51,8.22-2.9,16.39-6.11,24.46-9.56,23.2-9.92,45.77-21.94,67.41-36.1,6.54-4.31,13.03-8.8,19.4-13.5,8.73-6.4,17.26-13.16,25.61-20.3,9.12-7.8,17.87-15.91,26.18-24.28,5.21-5.19,10.22-10.48,15.07-15.9,17.4-19.31,32.8-39.84,46.18-61.38,4.79-7.59,9.29-15.35,13.5-23.19,3.5-6.44,6.79-12.95,9.9-19.53,16.41.17,32.78,1.92,48.87,5.12,4.14.81,8.26,1.73,12.38,2.71Z"/>
          <path class="st10" d="M291.08,744.59c.16.5.29,1.08.33,1.68-.4.03-.8.05-1.23.05.3-.58.58-1.18.91-1.73Z"/>
          <path class="st10" d="M537.69,554.21c-.43,1.42-.85,2.85-1.31,4.3-1.67-.59-3.3-1.2-4.97-1.85,2.09-.84,4.19-1.67,6.28-2.45Z"/>
          <path class="st10" d="M291.08,744.59c.16.5.29,1.08.33,1.68-.4.03-.8.05-1.23.05.3-.58.58-1.18.91-1.73Z"/>
          <path class="st10" d="M537.69,554.21c-.43,1.42-.85,2.85-1.31,4.3-1.67-.59-3.3-1.2-4.97-1.85,2.09-.84,4.19-1.67,6.28-2.45Z"/>
          <path class="st10" d="M291.08,744.59c.16.5.29,1.08.33,1.68-.4.03-.8.05-1.23.05.3-.58.58-1.18.91-1.73Z"/>
          <path class="st10" d="M537.69,554.21c-.43,1.42-.85,2.85-1.31,4.3-1.67-.59-3.3-1.2-4.97-1.85,2.09-.84,4.19-1.67,6.28-2.45Z"/>
          <path class="st10" d="M291.08,744.59c.16.5.29,1.08.33,1.68-.4.03-.8.05-1.23.05.3-.58.58-1.18.91-1.73Z"/>
          <path class="st10" d="M537.69,554.21c-.43,1.42-.85,2.85-1.31,4.3-1.67-.59-3.3-1.2-4.97-1.85,2.09-.84,4.19-1.67,6.28-2.45Z"/>
          <path class="st32" d="M536.38,558.5c-5.76,18.11-13.43,35.73-23.03,52.46-17.63-5.01-35-11.2-51.93-18.5-8.1-3.46-16.09-7.18-23.98-11.14-21.63-10.87-42.48-23.61-62.27-38.22-5.75-4.19-11.41-8.58-16.97-13.1-17.26-14.07-33.64-29.57-48.95-46.63-2.69-2.9-5.31-5.9-7.9-8.93l-.26-.31c11.39-10.53,22.09-21.57,32.1-33.04,4.74-5.43,9.31-10.92,13.72-16.55,1.51,1.89,3.05,3.75,4.64,5.62l.68.8c4.34,5.08,8.78,10.03,13.32,14.84,15.99,17.16,33.08,32.7,51.03,46.71,5.92,4.58,11.95,9.02,18.07,13.27,21.88,15.31,44.95,28.43,68.81,39.3,9.21,4.21,18.5,8.08,27.94,11.56,1.66.64,3.3,1.26,4.97,1.85Z"/>
          <path class="st8" d="M341.85,543.09c-1.19.91-2.35,1.9-3.48,2.87-2.42,2.07-4.81,4.16-7.15,6.27-5.71,5.09-11.29,10.28-16.65,15.66-17.06,16.8-32.46,34.78-46.14,53.68-4.54,6.16-8.89,12.47-12.99,18.89-15.03,23.07-27.65,47.3-37.92,72.34l.03.03c-3.28,8-6.35,16.07-9.07,24.28-.98-.28-1.93-.52-2.91-.8-17.1-4.83-33.78-11.39-49.76-19.61,4.39-16.94,9.86-33.59,16.34-49.87,3.07-7.87,6.37-15.61,9.94-23.27,10.34-22.24,22.6-43.78,36.83-64.26,4.07-5.96,8.33-11.83,12.78-17.59,13.75-17.94,29.05-34.99,45.9-50.98,5.03-4.78,10.23-9.48,15.58-14.06,3.23,3.6,6.5,7.11,9.86,10.54,12.33,12.88,25.33,24.87,38.83,35.89Z"/>
          <path class="st10" d="M291.08,744.59c.16.5.29,1.08.33,1.68-.4.03-.8.05-1.23.05.3-.58.58-1.18.91-1.73Z"/>
          <path class="st10" d="M537.69,554.21c-.43,1.42-.85,2.85-1.31,4.3-1.67-.59-3.3-1.2-4.97-1.85,2.09-.84,4.19-1.67,6.28-2.45Z"/>
          <path class="st8" d="M419.7,593.85c-8.19,6.04-16.23,12.44-24.07,19.13-9.98,8.53-19.5,17.41-28.51,26.64-5.65,5.73-11.08,11.58-16.35,17.57-17.53,19.96-32.99,41.17-46.3,63.35l.03.03c-4.76,7.88-9.25,15.9-13.42,24.02-.33.55-.6,1.15-.91,1.73-20.83.85-41.73-.73-62.18-4.71-.65-.08-1.3-.22-1.94-.35.27-.92.6-1.78.95-2.61,10.11-26.6,22.87-52.33,38.28-76.83,4.15-6.62,8.49-13.13,13.02-19.54,13.66-19.35,29.01-37.77,46.14-55.05,5.34-5.46,10.87-10.77,16.59-15.92,3.51-3.27,7.13-6.47,10.81-9.61,2.23-1.91,4.5-3.79,6.75-5.61,19.49,14.38,39.93,26.95,61.13,37.76Z"/>
          <path class="st10" d="M291.08,744.59c.16.5.29,1.08.33,1.68-.4.03-.8.05-1.23.05.3-.58.58-1.18.91-1.73Z"/>
          <path class="st10" d="M537.69,554.21c-.43,1.42-.85,2.85-1.31,4.3-1.67-.59-3.3-1.2-4.97-1.85,2.09-.84,4.19-1.67,6.28-2.45Z"/>
          <path class="st8" d="M503.9,626.25c-13.5,20.28-30,39.03-49.41,55.62-22.04,18.84-46.24,33.47-71.64,44.05-5.88,2.48-11.82,4.7-17.86,6.68-16.2,5.47-32.8,9.28-49.58,11.53,12.11-21.04,26.11-41.22,41.98-60.29,5.21-6.3,10.64-12.53,16.31-18.54l-.03-.03c11.36-12.25,23.59-23.97,36.63-35.11,10.59-9.05,21.48-17.51,32.64-25.34,19.83,8.7,40.2,15.87,60.96,21.44Z"/>
          <path class="st10" d="M537.69,554.21c-.43,1.42-.85,2.85-1.31,4.3-1.67-.59-3.3-1.2-4.97-1.85,2.09-.84,4.19-1.67,6.28-2.45Z"/>
          <path class="st10" d="M537.69,554.21c-.43,1.42-.85,2.85-1.31,4.3-1.67-.59-3.3-1.2-4.97-1.85,2.09-.84,4.19-1.67,6.28-2.45Z"/>
          <path class="st10" d="M537.69,554.21c-.43,1.42-.85,2.85-1.31,4.3-1.67-.59-3.3-1.2-4.97-1.85,2.09-.84,4.19-1.67,6.28-2.45Z"/>
          <path class="st10" d="M282.88,207.03c-3.12,6.58-6.4,13.09-9.9,19.53-4.21,7.84-8.71,15.6-13.5,23.19-13.37,21.54-28.78,42.07-46.18,61.38-4.85,5.42-9.87,10.71-15.07,15.9-8.31,8.37-17.06,16.48-26.18,24.28-8.36,7.14-16.89,13.9-25.61,20.3-6.37,4.7-12.86,9.19-19.4,13.5-21.65,14.15-44.21,26.18-67.41,36.1-8.07,3.45-16.23,6.67-24.46,9.56-7.56,2.75-15.21,5.26-22.93,7.51.75-5.2,1.65-10.41,2.68-15.58.41-1.94.82-3.88,1.26-5.84,5.87-2,11.75-4.16,17.56-6.48,24.51-9.56,48.36-21.45,71.24-35.71,6.79-4.21,13.48-8.65,20.1-13.3,11.43-8.01,22.59-16.65,33.42-25.91,11.85-10.12,23.02-20.73,33.52-31.82,5.23-5.47,10.26-11.05,15.14-16.75,17.7-20.69,33.2-42.72,46.43-65.73,2.61-4.51,5.11-9.02,7.52-13.58,2.73-.16,5.45-.31,8.12-.42,4.58-.15,9.13-.23,13.66-.13Z"/>
          <path class="st32" d="M549.01,477.32c0,17.54-1.75,35.08-5.22,52.29-.73,3.8-1.57,7.59-2.52,11.37-4.63-1.82-9.25-3.7-13.81-5.68-25.03-10.76-49.19-23.97-72.13-39.54l-.03-.03c-6.29-4.26-12.49-8.66-18.55-13.34-18.39-13.9-35.91-29.44-52.27-46.6-4.81-5-9.51-10.2-14.12-15.53-.82-.89-1.6-1.81-2.38-2.73-2.83-3.31-5.59-6.67-8.3-10.02,14.27-19.87,26.65-40.78,37.17-62.38,6.97,9.77,14.48,19.3,22.41,28.58,5.81,6.8,11.8,13.38,17.96,19.72,5.04,5.28,10.18,10.37,15.45,15.29,18.48,17.42,38.2,32.93,58.87,46.52,7.25,4.77,14.58,9.31,22.04,13.58,5.08,2.97,10.23,5.77,15.41,8.49Z"/>
          <path class="st10" d="M537.69,554.21c-.43,1.42-.85,2.85-1.31,4.3-1.67-.59-3.3-1.2-4.97-1.85,2.09-.84,4.19-1.67,6.28-2.45Z"/>
          <path class="st10" d="M361.26,219.72c-.8,2.54-1.65,5.01-2.53,7.46-3.38,9.99-7.12,19.81-11.31,29.47-10.49,24.8-23.39,48.75-38.63,71.52-4.21,6.3-8.58,12.47-13.17,18.56-13.73,18.46-29.13,36.02-46.13,52.45-4.98,4.84-10.12,9.6-15.43,14.24-1.66,1.53-3.41,3.02-5.12,4.48-1.75,1.49-3.49,2.98-5.26,4.39-5.87,4.91-11.83,9.58-17.9,14.08-19.05,14.21-38.94,26.65-59.43,37.32-6.73,3.53-13.5,6.82-20.37,9.94-24.41,11.17-49.58,19.9-75.18,26.26-9.18,2.34-18.48,4.35-27.83,5.98l-.03.03c-3.45.67-6.87,1.26-10.36,1.76-.43-2.86-.83-5.75-1.21-8.61-.36-3.03-.64-6.02-.89-9.04,6.06-1.1,12.07-2.37,18.03-3.75,26.81-6.06,53.2-14.73,78.76-26.04,7.07-3.07,14.04-6.38,20.94-9.9,20.93-10.52,41.22-22.93,60.64-37.09,6.12-4.49,12.2-9.15,18.12-14,2.86-2.29,5.71-4.66,8.52-7.07,2.97-2.54,5.91-5.11,8.77-7.71,5.28-4.73,10.38-9.55,15.36-14.5,17-16.86,32.41-34.84,46.06-53.77,4.6-6.27,8.99-12.66,13.19-19.16,15.6-24.03,28.61-49.34,39-75.54,2.2-5.48,4.29-11.03,6.25-16.62,3.78.95,7.56,1.96,11.33,3.09,1.96.55,3.88,1.13,5.8,1.77Z"/>
          <path class="st32" d="M484.38,301.5c19.46,22.78,34.46,47.83,45.11,74.17,2.2,5.49,4.22,10.96,6.04,16.55,5.98,18.04,9.93,36.54,11.95,55.21.18,1.7.36,3.4.49,5.09-2.21-1.29-4.45-2.61-6.63-3.98l-.03-.03c-22.08-13.44-43.17-29.01-62.94-46.7-5.5-4.89-10.96-9.97-16.23-15.21-8.88-8.72-17.44-17.94-25.68-27.58-10.41-12.19-20.08-24.8-28.91-37.74l.03-.03c9.29-22.29,16.63-45.25,22.04-68.62,19.91,13.39,38.4,29.69,54.78,48.86Z"/>
          <path class="st10" d="M291.08,744.59c.16.5.29,1.08.33,1.68-.4.03-.8.05-1.23.05.3-.58.58-1.18.91-1.73Z"/>
          <path class="st10" d="M291.08,744.59c.16.5.29,1.08.33,1.68-.4.03-.8.05-1.23.05.3-.58.58-1.18.91-1.73Z"/>
          <path class="st10" d="M291.08,744.59c.16.5.29,1.08.33,1.68-.4.03-.8.05-1.23.05.3-.58.58-1.18.91-1.73Z"/>
          <path class="st21" d="M261.1,207.57c-2.41,4.55-4.91,9.07-7.52,13.58-13.23,23.01-28.73,45.05-46.43,65.73-4.87,5.7-9.91,11.28-15.14,16.75-10.5,11.09-21.67,21.69-33.52,31.82-10.84,9.26-22,17.9-33.42,25.91-6.62,4.65-13.31,9.1-20.1,13.3-22.88,14.26-46.72,26.15-71.24,35.71-5.81,2.31-11.69,4.48-17.56,6.48.88-3.93,1.87-7.85,2.95-11.74,5-18.26,11.91-36.03,20.78-52.98,2.9-5.66,6.04-11.15,9.39-16.6,14.41-23.43,32.64-45.05,54.68-63.89,23.6-20.17,49.66-35.55,77.03-46.22,5.36-2.09,10.77-4.01,16.22-5.75,17.78-5.66,35.98-9.4,54.3-11.28,3.2-.35,6.42-.61,9.58-.82Z"/>
          <path class="st21" d="M413.2,242.5c-4.92,19.72-11.24,39.16-18.93,58.12-3.34,8.36-6.99,16.62-10.88,24.77-10.59,22.13-23.13,43.54-37.58,63.89-4.15,5.87-8.45,11.62-12.93,17.29-13.81,17.62-29.14,34.33-46.02,49.97-4.57,4.33-9.26,8.5-14.1,12.63l-.12.1c-.46.39-.89.76-1.37,1.12-5.3,4.53-10.72,8.9-16.17,13.13-18.36,14.1-37.47,26.51-57.22,37.3-6.3,3.48-12.67,6.75-19.14,9.84-22.12,10.75-44.97,19.46-68.21,26.24-7.89,2.29-15.88,4.35-23.91,6.18-19.69,4.54-39.62,7.69-59.61,9.46-6.83-17.84-11.61-36.27-14.43-54.89,3.49-.5,6.91-1.09,10.36-1.76l.03-.03c9.35-1.64,18.65-3.65,27.83-5.98,25.61-6.36,50.77-15.1,75.18-26.26,6.87-3.12,13.64-6.41,20.37-9.94,20.49-10.67,40.37-23.11,59.43-37.32,6.07-4.49,12.03-9.17,17.9-14.08,1.77-1.4,3.51-2.89,5.26-4.39,1.71-1.46,3.46-2.96,5.12-4.48,5.31-4.64,10.45-9.41,15.43-14.24,17-16.43,32.4-33.99,46.13-52.45,4.59-6.09,8.96-12.26,13.17-18.56,15.24-22.77,28.14-46.72,38.63-71.52,4.19-9.67,7.93-19.49,11.31-29.47.88-2.44,1.73-4.92,2.53-7.46,17.95,5.69,35.37,13.32,51.94,22.78Z"/>
          <path class="st10" d="M541.3,448.52c-22.08-13.44-43.17-29.01-62.94-46.7-5.5-4.89-10.96-9.97-16.23-15.21-8.88-8.72-17.44-17.94-25.68-27.58-10.41-12.19-20.08-24.8-28.91-37.74l.03-.03c9.29-22.29,16.63-45.25,22.04-68.62-5.35-3.59-10.82-6.96-16.4-10.14-4.92,19.72-11.24,39.16-18.93,58.12-3.34,8.36-6.99,16.62-10.88,24.77-10.59,22.13-23.13,43.54-37.58,63.89-4.15,5.87-8.45,11.62-12.93,17.29-13.81,17.62-29.14,34.33-46.02,49.97-4.57,4.33-9.26,8.5-14.1,12.63l-.12.1c-.46.39-.89.76-1.37,1.12-5.3,4.53-10.72,8.9-16.17,13.13-18.36,14.1-37.47,26.51-57.22,37.3-6.3,3.48-12.67,6.75-19.14,9.84-22.12,10.75-44.97,19.46-68.21,26.24-7.89,2.29-15.88,4.35-23.91,6.18-19.69,4.54-39.62,7.69-59.61,9.46,2.24,6.03,4.75,11.94,7.46,17.78,23.41-1.68,46.68-5.25,69.68-10.7,8.35,8.28,16.43,17,24.2,26.09,11.51,13.47,22.04,27.41,31.62,41.78-8.06,19.76-14.59,40.01-19.61,60.61,5.04,3.05,10.19,5.91,15.44,8.58,4.39-16.94,9.86-33.59,16.34-49.87,3.07-7.87,6.37-15.61,9.94-23.27,10.34-22.24,22.6-43.78,36.83-64.26,4.07-5.96,8.33-11.83,12.78-17.59,13.75-17.94,29.05-34.99,45.9-50.98,5.03-4.78,10.23-9.48,15.58-14.06,3.23,3.6,6.5,7.11,9.86,10.54,12.33,12.88,25.33,24.87,38.83,35.89-1.19.91-2.35,1.9-3.48,2.87-2.42,2.07-4.81,4.16-7.15,6.27-5.71,5.09-11.29,10.28-16.65,15.66-17.06,16.8-32.46,34.78-46.14,53.68-4.54,6.16-8.89,12.47-12.99,18.89-15.03,23.07-27.65,47.3-37.92,72.34l.03.03c-3.28,8-6.35,16.07-9.07,24.28,5.82,1.6,11.68,2.94,17.58,4.15.27-.92.6-1.78.95-2.61,10.11-26.6,22.87-52.33,38.28-76.83,4.15-6.62,8.49-13.13,13.02-19.54,13.66-19.35,29.01-37.77,46.14-55.05,5.34-5.46,10.87-10.77,16.59-15.92,3.51-3.27,7.13-6.47,10.81-9.61,2.23-1.91,4.5-3.79,6.75-5.61,19.49,14.38,39.93,26.95,61.13,37.76-8.19,6.04-16.23,12.44-24.07,19.13-9.98,8.53-19.5,17.41-28.51,26.64-5.65,5.73-11.08,11.58-16.35,17.57-17.53,19.96-32.99,41.17-46.3,63.35l.03.03c-4.76,7.88-9.25,15.9-13.42,24.02.16.5.29,1.08.33,1.68,5.99-.24,12-.72,17.99-1.39,2.02-.24,4.04-.48,6.03-.76,12.11-21.04,26.11-41.22,41.98-60.29,5.21-6.3,10.64-12.53,16.31-18.54l-.03-.03c11.36-12.25,23.59-23.97,36.63-35.11,10.59-9.05,21.48-17.51,32.64-25.34,19.83,8.7,40.2,15.87,60.96,21.44,3.34-5.02,6.48-10.09,9.45-15.28-17.63-5.01-35-11.2-51.93-18.5-8.1-3.46-16.09-7.18-23.98-11.14-21.63-10.87-42.48-23.61-62.27-38.22-5.75-4.19-11.41-8.58-16.97-13.1-17.26-14.07-33.64-29.57-48.95-46.63-2.69-2.9-5.31-5.9-7.9-8.93l-.26-.31c11.39-10.53,22.09-21.57,32.1-33.04,4.74-5.43,9.31-10.92,13.72-16.55,1.51,1.89,3.05,3.75,4.64,5.62l.68.8c4.34,5.08,8.78,10.03,13.32,14.84,15.99,17.16,33.08,32.7,51.03,46.71,5.92,4.58,11.95,9.02,18.07,13.27,21.88,15.31,44.95,28.43,68.81,39.3,9.21,4.21,18.5,8.08,27.94,11.56,2.09-.84,4.19-1.67,6.28-2.45,1.34-4.38,2.52-8.77,3.58-13.23-4.63-1.82-9.25-3.7-13.81-5.68-25.03-10.76-49.19-23.97-72.13-39.54l-.03-.03c-6.29-4.26-12.49-8.66-18.55-13.34-18.39-13.9-35.91-29.44-52.27-46.6-4.81-5-9.51-10.2-14.12-15.53-.82-.89-1.6-1.81-2.38-2.73-2.83-3.31-5.59-6.67-8.3-10.02,14.27-19.87,26.65-40.78,37.17-62.38,6.97,9.77,14.48,19.3,22.41,28.58,5.81,6.8,11.8,13.38,17.96,19.72,5.04,5.28,10.18,10.37,15.45,15.29,18.48,17.42,38.2,32.93,58.87,46.52,7.25,4.77,14.58,9.31,22.04,13.58,5.08,2.97,10.23,5.77,15.41,8.49.02-3.94-.04-7.91-.18-11.87-.21-4.27-.47-8.61-.84-12.89l-.03-.03c-2.21-1.29-4.45-2.61-6.63-3.98l-.03-.03ZM206.13,562.29c-13.99,20.01-26.1,41.05-36.4,62.78-7.88-11.27-16.42-22.25-25.52-32.91-5.49-6.43-11.14-12.67-16.93-18.69,22.75-6.73,45.05-15.34,66.75-25.89.37.37.68.74,1.02,1.14,3.82,4.47,7.52,8.99,11.07,13.58ZM218.8,544.95c-1.9-2.41-3.85-4.76-5.87-7.12,7.64-4.2,15.19-8.63,22.67-13.33-5.84,6.68-11.46,13.5-16.8,20.45Z"/>
          <path class="st32" d="M128.35,605.71c11.51,13.47,22.04,27.41,31.62,41.78-8.06,19.76-14.59,40.01-19.61,60.61-24.33-14.59-46.77-33.35-66.2-56.09-16.35-19.13-29.57-39.94-39.69-61.7,23.41-1.68,46.68-5.25,69.68-10.7,8.35,8.28,16.43,17,24.2,26.09Z"/>
          <path class="st32" d="M195.06,548.71c3.82,4.47,7.52,8.99,11.07,13.58-13.99,20.01-26.1,41.05-36.4,62.78-7.88-11.27-16.42-22.25-25.52-32.91-5.49-6.43-11.14-12.67-16.93-18.69,22.75-6.73,45.05-15.34,66.75-25.89.37.37.68.74,1.02,1.14Z"/>
          <path class="st32" d="M235.6,524.5c-5.84,6.68-11.46,13.5-16.8,20.45-1.9-2.41-3.85-4.76-5.87-7.12,7.64-4.2,15.19-8.63,22.67-13.33Z"/>
          <path class="st10" d="M291.08,744.59c.16.5.29,1.08.33,1.68-.4.03-.8.05-1.23.05.3-.58.58-1.18.91-1.73Z"/>
        </g>
        <circle class="st16" cx="279.25" cy="476.74" r="269.79"/>
      </g>
      <path class="st27" d="M585.81,567.13c0,125.18-105.34,227.49-238.04,234.28-.08.03-.19.03-.3.03-2.45.14-4.86.21-7.3.28-.19.04-.34.04-.49,0-34.17-.67-61.68-26.65-61.68-58.63,0-27.95,21-51.35,49.11-57.2,3.61-.39,7.15-.84,10.69-1.4,119.98-18.07,211.55-114.88,211.55-231.62,0-2.52-.04-5.04-.15-7.57,23.26,35.52,36.62,77.19,36.62,121.82Z"/>
      <path class="st27" d="M152.04,360.01c0,15.97-12.8,28.91-28.74,29.16-3.9,11.48-14.75,19.76-27.59,19.76-9.53,0-17.99-4.59-23.35-11.66v-.03c-24.22-7.06-41.89-29.43-41.89-55.91,0-32.18,26.09-58.28,58.28-58.28,12.63,0,24.32,4,33.85,10.86h.07c16.07,0,29.12,13.05,29.12,29.16,0,5.91-1.77,11.45-4.8,16.04.03.73.03,1.5.03,2.23s0,1.53-.07,2.26c3.2,4.7,5.08,10.33,5.08,16.42Z"/>
      <path class="st27" d="M417.64,360.01c0,15.97,12.8,28.91,28.74,29.16,3.9,11.48,14.75,19.76,27.59,19.76,9.53,0,17.99-4.59,23.35-11.66v-.03c24.22-7.06,41.89-29.43,41.89-55.91,0-32.18-26.09-58.28-58.28-58.28-12.63,0-24.32,4-33.85,10.86h-.07c-16.07,0-29.12,13.05-29.12,29.16,0,5.91,1.77,11.45,4.8,16.04-.03.73-.03,1.5-.03,2.23,0,.77,0,1.53.07,2.26-3.2,4.7-5.08,10.33-5.08,16.42Z"/>
    </g>
  </g>
</svg>